PathFileType	4	(X/Y/Z)	C:/Users/opensim2020/Desktop/walking_exp_matlab/subject02_walking14_straight_02.trc	
DataRate	CameraRate	NumFrames	NumMarkers	Units	OrigDataRate	OrigDataStartFrame	OrigNumFrames	
100.00	100.00	5	41	mm	100.00	885	121	
Frame#	Time	LFHD			RFHD			LBHD			RBHD			C7			T10			CLAV			STRN			RBAK			LSHO			LUPA			LELB			LFRM			LWRA			LWRB			LFIN			RSHO			RUPA			RELB			RFRM			RWRA			RWRB			RFIN			LASI			RASI			LPSI			RPSI			LTHI			LKNE			LTIB			LANK			LHEE			LTOE			RTHI			RKNE			RTIB			RANK			RHEE			RTOE			*39			*40			
		X1	Y1	Z1	X2	Y2	Z2	X3	Y3	Z3	X4	Y4	Z4	X5	Y5	Z5	X6	Y6	Z6	X7	Y7	Z7	X8	Y8	Z8	X9	Y9	Z9	X10	Y10	Z10	X11	Y11	Z11	X12	Y12	Z12	X13	Y13	Z13	X14	Y14	Z14	X15	Y15	Z15	X16	Y16	Z16	X17	Y17	Z17	X18	Y18	Z18	X19	Y19	Z19	X20	Y20	Z20	X21	Y21	Z21	X22	Y22	Z22	X23	Y23	Z23	X24	Y24	Z24	X25	Y25	Z25	X26	Y26	Z26	X27	Y27	Z27	X28	Y28	Z28	X29	Y29	Z29	X30	Y30	Z30	X31	Y31	Z31	X32	Y32	Z32	X33	Y33	Z33	X34	Y34	Z34	X35	Y35	Z35	X36	Y36	Z36	X37	Y37	Z37	X38	Y38	Z38	X39	Y39	Z39	X40	Y40	Z40	X41	Y41	Z41	

76	0.750	-1023.23083	-357.99902	1731.30884	-1166.52747	-357.50748	1717.13794	-1018.32672	-222.40326	1667.01416	-1160.36328	-209.14760	1652.11047	-1089.38232	-157.76392	1525.37390	-1109.77490	-116.80231	1244.73962	-1080.88184	-300.59344	1461.44836	-1096.34045	-361.05197	1294.30212	-1159.32849	-104.34435	1347.87390	-912.00806	-225.99495	1496.40540	-825.25189	-226.58607	1299.92529	-802.77283	-248.92198	1158.73181	-806.67474	-327.87045	1047.43958	-856.80994	-439.12375	980.03107	-822.42731	-402.35010	951.40643	-825.83289	-456.34918	913.11902	-1276.07153	-228.16833	1499.74146	-1368.03418	-189.03114	1315.03552	-1392.23535	-192.83438	1170.17358	-1417.28174	-210.59273	1052.87659	-1404.13831	-243.42033	920.27765	-1439.06702	-199.20964	924.59320	-1442.98523	-228.23343	857.35278	-980.31665	-342.55661	983.90735	-1236.31079	-359.00961	985.24677	-1075.58728	-141.10565	1030.66443	-1191.17456	-142.53137	1037.67432	-931.86639	-322.79565	670.18848	-958.82727	-330.71930	487.97354	-987.19482	-192.84288	369.59485	-1030.98889	-77.05644	182.64861	-1092.78784	-47.46801	173.29080	-986.83215	-171.01373	68.47491	-1309.95630	-302.65146	673.98798	-1264.63037	-306.67050	464.01297	-1273.09509	-255.83739	281.42847	-1233.84436	-222.51585	92.03346	-1180.96008	-181.13217	39.48201	-1241.65100	-372.87958	36.90015	-1111.23022	-262.02618	1806.72791			 
77	0.760	-1022.57819	-371.20471	1731.94714	-1165.58875	-371.20233	1718.21936	-1018.02124	-235.44237	1667.90515	-1160.13196	-222.73471	1653.31506	-1089.87134	-170.98457	1526.57263	-1111.20789	-129.77786	1246.05872	-1080.84631	-313.59714	1462.38318	-1096.49512	-373.98529	1295.25293	-1160.89661	-117.75963	1349.48962	-912.21179	-238.15009	1496.96155	-826.22278	-237.52492	1300.01074	-803.84875	-256.59381	1158.78186	-806.30219	-330.27957	1044.35669	-855.16150	-438.44760	970.77747	-820.62506	-400.89926	944.70355	-823.52112	-452.89954	903.51709	-1276.05603	-242.41985	1501.66223	-1369.72119	-205.69276	1317.26099	-1394.28088	-211.17630	1172.17896	-1419.10974	-231.60670	1055.19250	-1405.72778	-267.87866	923.67529	-1440.88965	-223.73085	926.66138	-1444.88074	-255.00151	860.59338	-982.02081	-356.14905	986.47687	-1237.69580	-370.77304	986.27417	-1076.09375	-153.83713	1031.99329	-1191.72534	-154.97443	1038.73853	-932.13647	-341.04184	673.13513	-960.31146	-353.30344	489.87433	-988.81641	-220.15683	364.86942	-1034.65527	-113.30438	173.11584	-1096.25916	-84.47885	162.28481	-990.55219	-213.42000	64.63921	-1309.67847	-308.01828	673.74750	-1264.87976	-309.40277	463.74646	-1273.05957	-256.79556	281.59100	-1233.65845	-222.67549	92.36845	-1180.67957	-181.31050	39.72221	-1241.68420	-372.99268	36.65677	-1110.16101	-275.36557	1807.54626			 
78	0.770	-1021.16394	-383.91852	1732.78149	-1164.39551	-384.74847	1719.20654	-1017.86957	-248.70306	1668.51172	-1159.97412	-236.25514	1654.25964	-1089.84814	-184.14255	1527.20325	-1112.59314	-142.72658	1247.11670	-1080.44421	-327.14349	1463.30994	-1096.64099	-387.03796	1295.98535	-1161.64954	-131.32410	1350.55298	-912.45679	-250.32275	1497.19299	-826.86096	-247.83325	1300.06873	-804.89856	-264.10809	1158.60864	-805.91748	-332.58456	1040.71021	-853.19415	-437.54147	961.73840	-818.85046	-398.18240	937.70380	-821.08948	-447.64539	893.82135	-1275.92371	-256.75009	1503.12036	-1371.01331	-222.27373	1319.14819	-1396.68628	-229.44229	1174.10205	-1421.29456	-253.02333	1057.50500	-1407.16394	-292.51886	926.82654	-1442.62305	-248.50964	928.71216	-1446.58801	-281.97131	863.85950	-984.16376	-369.63248	988.50879	-1239.24146	-382.49850	986.93365	-1076.31348	-166.48370	1033.09180	-1191.95850	-167.39339	1039.53735	-932.20801	-359.09555	675.88837	-961.65631	-375.49780	491.27383	-990.16956	-247.78131	359.27097	-1037.70142	-150.75337	162.89871	-1099.67456	-122.25192	150.63168	-993.70398	-256.92252	60.86266	-1309.73340	-314.28757	673.50549	-1264.89136	-312.24377	463.38660	-1272.98523	-258.24338	281.72830	-1233.57715	-223.21770	92.48317	-1180.31177	-181.52441	39.93280	-1241.75122	-372.93948	36.61003	-1109.62488	-288.92020	1808.67773			 
79	0.780	-1020.17725	-397.26373	1732.81738	-1163.42297	-398.49152	1719.75989	-1017.21124	-261.41876	1668.90576	-1159.59131	-249.77812	1654.74658	-1090.41565	-197.61649	1527.86194	-1113.84045	-155.71582	1247.85742	-1080.16077	-340.46616	1463.81702	-1096.96777	-400.00470	1296.47900	-1163.65637	-144.49675	1351.86938	-912.49408	-262.60901	1496.96204	-827.31476	-257.75558	1299.76404	-805.90619	-271.65915	1158.16101	-805.52808	-335.12320	1037.35022	-851.54083	-435.12509	952.25055	-817.05939	-395.76059	931.32007	-818.75165	-442.45374	884.45471	-1275.92432	-270.90997	1504.44702	-1372.50574	-238.86223	1320.87231	-1399.07849	-247.79236	1175.70972	-1422.97498	-274.32162	1059.53760	-1408.62830	-317.41110	930.45898	-1444.07520	-273.75583	930.55847	-1448.13000	-309.09091	867.07697	-986.49994	-383.29141	990.13776	-1240.92847	-394.15155	987.25946	-1076.23804	-179.09286	1033.94592	-1191.96082	-179.73842	1040.08484	-932.40912	-377.16241	678.32813	-962.79834	-397.15826	492.36530	-991.35040	-275.56680	353.05072	-1040.43237	-189.07857	152.34892	-1102.57471	-161.21666	138.51570	-996.25104	-301.19785	57.36518	-1309.12256	-319.96448	673.51923	-1264.88281	-315.31726	463.10544	-1272.78992	-260.02264	281.81503	-1233.20898	-223.34474	92.89166	-1179.99719	-181.65208	40.27211	-1241.89465	-372.96576	36.75163	-1108.63062	-302.20569	1809.09778			 
80	0.790	-1018.78882	-410.16837	1733.09827	-1161.78735	-412.00253	1719.95117	-1016.82990	-274.32925	1668.81274	-1159.15869	-263.50641	1655.35791	-1090.50378	-210.88690	1528.00269	-1115.03101	-168.61154	1248.28186	-1080.20740	-352.58258	1463.76782	-1097.24280	-412.97192	1296.59253	-1164.93555	-157.86801	1352.66943	-912.40137	-274.68408	1496.54077	-827.75562	-267.61685	1299.13013	-806.88513	-279.23285	1157.35803	-804.96118	-336.37979	1034.22021	-849.29004	-433.14886	943.27045	-815.01740	-392.34891	924.80292	-816.11542	-436.73914	875.43359	-1275.65686	-285.02539	1505.37085	-1373.87073	-255.36823	1322.28979	-1401.83752	-266.17780	1177.30237	-1424.84155	-295.91104	1061.49438	-1409.87207	-342.42975	933.80865	-1445.54407	-298.93359	932.48328	-1449.49097	-336.35416	870.28290	-988.86835	-397.06613	991.12689	-1242.57788	-405.70984	987.17639	-1075.85913	-191.65199	1034.50122	-1191.66296	-192.08710	1040.38000	-932.40729	-394.25513	680.47601	-964.08856	-417.95959	493.14725	-992.43445	-303.91550	346.33920	-1042.49805	-228.33553	141.61491	-1104.56580	-201.64494	125.78695	-998.16119	-346.20001	54.14113	-1308.80603	-326.52936	673.33722	-1264.73914	-318.47284	462.75290	-1272.46899	-261.96371	281.95999	-1232.92004	-223.71428	93.18508	-1179.54651	-182.10565	40.43554	-1241.99512	-373.04639	36.68712	-1107.54187	-315.73773	1809.33044			 
